<?xml version="1.0" encoding="utf-8"?>
<!-- Generator: Adobe Illustrator 27.8.0, SVG Export Plug-In . SVG Version: 6.00 Build 0)  -->
<svg version="1.1" id="Layer_1" xmlns="http://www.w3.org/2000/svg" xmlns:xlink="http://www.w3.org/1999/xlink" x="0px" y="0px"
	 width="410px" height="410px" viewBox="0 0 410 410" style="enable-background:new 0 0 410 410;" xml:space="preserve">
<style type="text/css">
	.st0{fill:#3B56A5;}
</style>
<g>
	<path class="st0" d="M107.7,90c4.2,1.4,6.5-1,8.7-5.1c8.3-15.6,31.6-17.8,43.4-10.2c4.5,2.9,7.1,3.5,11.7-0.3
		c11.2-9.3,42-11.9,56.2,4.2c2.7,3.1,4.6,2.5,7.5,0.8c20-11.9,52.6-0.1,61,17.8c1.5,3.2,3.1,3.6,6.5,3c21.1-3.8,37.7,3.1,48,19.3
		c2.8,4.4,4.4,9.2,4.6,14.1c0.2,5,2.7,6.1,6.8,7.2c12.3,3.6,20.4,11.5,23,24.4c1,5,0.1,10.1-2.1,14.6c-1.6,3.4-1.6,5.4,1.1,8.3
		c19.4,21.3,11.9,49.3-4.1,62.7c-1.4,1.1-3,2.2-3.1,4.2c-0.6,8-5.7,13.6-10.6,19.1c-10.5,11.5-22.3,21.4-35.8,29.1
		c-3.7,2.1-4,3.9-2.3,7.5c4.1,8.5,6.8,17.6,7.1,27.2c0.1,2.2,0.3,4.8-2.8,5.1c-3,0.3-3.5-2.3-3.8-4.4c-1.1-8.4-2.9-16.6-6.6-24.3
		c-1.1-2.4-1.8-5.8-5.9-4.1c-4.4,1.9-1.1,4.3-0.3,6.3c2.5,6.8,4.4,13.8,5.7,20.9c0.4,2.3,0.6,4.8-2.2,5.5c-3.1,0.8-4.1-1.6-4.6-4.2
		c-1.6-7.9-3.5-15.7-7-23c-1.2-2.4-2.5-4.4-5.5-4.9c-22.2-3.9-40-16.1-56.5-30.4c-3.7-3.2-5.7-3.9-9.8-0.5
		c-20.3,16.7-42.7,19.2-63.1,7.6c-4.2-2.4-8-5.4-11.2-9.1c-1.9-2.2-3.4-2.3-6.1-1c-19.6,9.9-36,7.1-50.4-8.8c-2.2-2.4-3.8-2.9-6.5-1
		c-13.2,9.4-37.6,4.2-47-8.4c-1.8-2.4-3.8-3.2-6.7-2.8c-22.7,2.9-35.7-24.3-26.4-39.4c1.5-2.4,1.1-4.2-0.2-6.6
		c-9.5-17.8-0.6-41,18.5-48.3c3.2-1.2,4-2.5,3.6-6c-1.9-18.5,10.6-34.4,29-37.1c3-0.4,3.8-1.8,4.5-4.5
		C77.8,100.1,92.1,89.7,107.7,90z M277.1,91.4c-10.3-8.7-27.8-10.1-38.5-3.3c-6.7,4.2-7.6,8.1-2.8,14.3c2.6,3.3,5.4,6.5,8.6,9.2
		c6.7,5.7,8.2,12.6,5.2,20.6c-1.1,2.8-0.8,4.6,1.4,6.8c6.5,6.5,8.2,14.4,6.1,23.3c-2.1,9.1-6.4,17.3-9.5,26c-1.3,3.5-2.5,6.9,0.9,10
		c1.7,1.6,3,3.7,0.6,5.6c-2.1,1.7-4.1,0.5-5.8-1.2c-4.5-4.4-4.7-9.6-2.7-15.1c2.5-7,5.3-13.9,8-20.8c1.7-4.4,2.7-8.8,2.2-13.5
		c-0.9-8.5-6.1-12.6-14.5-11.7c-6.7,0.8-13.2-0.3-19.5-2.6c-2.5-0.9-5.4-1.9-4.1-5.4c1.1-3.1,3.8-2.2,6.1-1.4
		c5.2,1.7,10.5,2.8,16,2.5c3-0.2,6.1-0.1,7.6-3.6c1.6-3.9,2.5-7.7-0.1-11.5c-1.2-1.8-2.9-3.3-4.5-4.8c-6.5-6-11.7-12.4-12.6-21.8
		c-0.4-4.5-3.4-8.1-7.3-10.6c-1.6-1-3.3-3-5.3-1.1c-1.6,1.5-1.4,3.7-0.6,5.6c1.1,2.6,2.4,5.1,3.4,7.7c3.1,7.8-0.2,21.9-6.1,26
		c-1.9,1.3-3.9,2.7-5.8,0.3c-1.6-1.9-0.6-3.5,0.9-5.2c5.6-6.5,7.1-13.7,3.1-21.6c-2.2-4.4-4-8.8-2.5-13.8c0.7-2.4-0.3-3.4-2.6-3.4
		c-3.4,0-6.8-0.2-10.2,0.1c-6.1,0.5-11.9,2-16.8,6c-1.8,1.5-4.5,2.9-3.9,5.6c0.5,2.4,3.4,2.6,5.4,3.2c3.5,0.9,7.1,1.4,10.6,2.1
		c10.9,2.3,15.3,8.8,11.7,19.3c-2.5,7.2-1.5,13.2,2.3,19.3c2.1,3.4,3.9,7,5.6,10.7c3.3,7.1,6.5,14.4,5.7,22.5
		c-0.5,5.7,2.2,9,6.5,11.9c2.6,1.8,3.8,1.2,4.4-1.8c1.2-6.1,1.9-12.3,2-18.5c0.1-2.6,0.2-5.7,3.9-5.5c3.4,0.2,3.2,3.1,3.1,5.5
		c-0.5,14.2-2.1,28.1-10.5,40.2c-1.8,2.7-1.5,4.2,1.3,5.6c4.3,2.2,8.7,4,13.4,5.4c8.1,2.3,16.4,4,24.1,7.5c7.5,3.5,8.5,3.2,13-4
		c1.3-2,2.1-4.3,3.2-6.5c1.5-3.1,0.9-4.9-2.5-6.5c-7.4-3.4-11.3-10-13.6-17.5c-0.7-2.2-1.1-4.6,1.7-5.6c2.7-0.9,4,0.9,4.9,3.2
		c0.8,2.1,1.4,4.2,2.5,6.1c1.7,2.9,4,7.4,7.1,6.4c3-1,1.1-5.6,0.5-8.6c-1.9-10.1,1-18.2,9.5-24.1c4.2-2.9,8.7-5,13.6-6.2
		c3.3-0.9,7.9-3.7,9.4,1c1.6,5.2-4.1,4.7-7.2,5.6c-16.3,4.8-19.8,10.3-17.8,27.1c1.4,11.2,1,22.7-7.2,31.3
		c-5.6,5.9-5.7,11.1-2.3,17.4c0.3,0.5,0.4,1.1,0.5,1.7c0.8,3.5,2.7,4.1,6.2,3.2c12.1-3.1,24.5-4.9,36.9-4.6
		c8.3,0.2,13.7-3.4,18.6-8.9c3.5-3.9,6.6-8.1,7.4-13.5c0.3-2,1.4-3.4,3.6-3.3c2.3,0.2,3.2,1.8,3,3.8c-0.5,4,1.7,4.4,5,4.8
		c4.9,0.5,9.2,2.9,12.4,6.8c1.4,1.8,2.8,3.8,0.6,5.8c-2.2,2-3.9,0.6-5.7-1c-9.2-8.1-18.8-5.7-23.3,5.9c9.8,1.4,19.5,3.1,28,8.6
		c2.2,1.4,3.5,0.7,5.3-0.7c10.9-8.7,11.6-20.2,1.7-30c-5.7-5.7-12.9-8.8-20.5-10.8c-2.1-0.6-3.8-1.7-3.3-4.2
		c0.5-2.6,2.6-2.7,4.7-2.6c3.5,0.2,6.6,1.7,9.7,3c7.2,3,13.2,7.7,18.7,13.3c-0.6-9.1-5.3-15.6-11.3-21.3c-2.2-2.1-4.4-4-2.8-7.7
		c2.8-6.7,2.7-7.2-4.9-8c-11.1-1.2-20.6-5-27.9-13.6c-0.6-0.8-1.5-1.3-2.3-1.9c-2.5-2-3.9-1.6-4.2,1.7c-0.3,4.2-1.5,8.3-3.3,12.2
		c-0.9,2-2.1,3.6-4.6,2.7c-2.4-0.9-2.4-3-1.9-5.1c0.5-1.7,1.1-3.4,1.7-5.2c3.9-13.3,0.5-19.5-12.7-23.5c-1.3-0.4-2.8-0.6-4-1.3
		c-4.1-2.1-7-1.4-10.4,2.1c-6.7,7-15.2,8.7-24.4,5.3c-2.7-1-6.6-2-5.1-6c1.4-3.7,4.7-1.7,7.3-0.9c0.8,0.2,1.6,0.4,2.3,0.7
		c6.3,1.9,11.4-0.3,15.8-4.8c4.2-4.3-1-6.8-2-10c-1.8-5.7-2-11.3-1-17.2c1-5.9-1.7-11.5-5.2-12.1c-8.1-1.5-16.5,6.1-15.9,14.4
		c0.3,3.7-0.2,7.2-2.6,10.2c-1.4,1.7-3.1,2.8-5.2,1.4c-1.8-1.2-1.9-3.2-0.7-4.8c2-2.7,1.7-5.7,1.5-8.7c-0.3-5.9,2.1-10.6,6.7-14
		C270.7,95,273.8,93.4,277.1,91.4z M107.6,99.7c-13.8-1.4-26.3,10.9-24.6,23.7c0.6,5.1-1.5,7-6.6,6c-1.4-0.3-2.7-0.6-4.1-0.8
		c-4.7-0.8-5.9,0.8-3.8,5.2c2.2,4.7,4.3,9.7,3.9,15c-0.4,4.8,1.1,8.2,4.5,11.7c5,5,9.2,10.7,10.7,17.8c1.2,5.5-0.6,9.9-4.8,13.4
		c-1.8,1.6-4.1,2.3-5.9,0.2c-1.7-1.9-0.6-3.8,1.1-5.2c3.8-3.2,3.4-7.1,1.3-10.9c-1.6-3-3.5-5.8-5.7-8.5c-6.3-7.7-10.3-8.1-18.2-2.3
		c-2.3,1.6-2.6,2.8-0.9,5.3c8.9,13.4,9.9,28.2,6,43.2c-1.3,4.8-0.6,6.6,3.9,8.3c6.4,2.4,9.7,7.5,10.6,14.2c0.3,2.3,0.3,4.7-2.5,5.3
		c-3.1,0.7-3.5-1.8-4-4c-0.8-3.7-2.2-6.9-5.7-8.8c-1.2-0.7-2.6-1.6-3.8-0.5c-1.1,1-0.1,2.3,0.3,3.3c2.2,5.8,2.5,11.4-1.2,16.7
		c-2.1,3,0,4.9,1.7,6.8c10.3,11.1,29.6,11,39.6-0.4c3.6-4.2,7.4-8.8,12.9-9.3c9-0.9,13.2-7.1,17.2-13.5c6.3-9.9,4.9-19.6-3.4-27.8
		c-3.6-3.6-7.8-6.3-12.2-8.8c-9-5.2-16.8-11.7-22.3-20.7c-6.3-10.5-7.6-21.4-2.5-32.8c1.1-2.5,2.4-5.9,6-4.1
		c3.3,1.6,1.2,4.5,0.3,6.8c-4.6,11.6-2.2,23.5,6.6,32.2c1.3,1.3,2.5,2.5,4.6,2.3c9.6-0.8,19.6,3.7,28.7-2.9c1.3-1,3.2-0.5,4.2,1.1
		c1.1,1.9,0.3,3.6-1.3,4.7c-1.6,1.1-3.5,2-5.3,2.9c-5.2,2.7-11.1,1.8-18.5,2.3c9.9,6.5,18.6,11.7,23.3,21.1c0.8,1.6,2.1,1.6,3.6,0.8
		c10.7-5.6,20.2-1.5,29.6,3.7c1.8,1,3.4,3.9,5.6,2.1c1.9-1.5,1.8-4.4,1.3-6.8c-1.1-5.5-2.3-11-3.6-16.5c-0.5-2.2-0.2-5-3.8-5.1
		c-2.9,0-4.8,0.8-6,3.8c-2.1,5.3-6.1,8.8-11.8,10.3c-2.2,0.6-4.1,0.6-5.1-1.7c-1-2.4,0.5-3.9,2.6-4.6c2.7-1,5.2-2.1,6.8-4.6
		c1.3-2.1,1.9-3.9-0.8-5.5c-10.8-6.4-16.8-16.9-23.4-27.1c-2.9-4.6-5.5-9.4-9.9-12.8c-1.6-1.2-3-2.3-1.5-4.3c1.4-1.9,3.3-3,5.7-1.3
		c2.9,2.2,5.2,4.9,7.3,8c4.8,7.2,9.5,14.4,14.6,21.4c5.7,7.9,13,12.5,23.6,11.5c9.9-0.9,15.9-8.4,12.5-17.4
		c-6.1-16-8.5-33.7-21.3-46.6c-0.3-0.3-0.5-0.7-0.6-1c-0.7-1.6-0.7-3.3,0.8-4.3c1.5-1.1,3.1-0.8,4.4,0.5c1.1,1.1,2.1,2.4,3.2,3.6
		c13.4,15.5,15.9,35.6,22.5,53.9c1.2,3.3,0.1,6.6-3,9.2c-6.8,5.9-6.7,6.3,0.6,11.8c2.5,1.9,5.2,2.9,8.2,3.5c2.9,0.6,6.2,0.7,8.7,2.1
		c5.4,3.1,7.4-0.2,9.8-3.9c3-4.7-1.2-5.9-3.7-7.8c-4.2-3.3-8.7-6.9-8.5-12.5c0.6-13-4.7-23.9-10.9-34.5c-4.5-7.7-6.4-15.1-2.9-24
		c2.7-7.1,0.6-9.6-6.9-11.4c-1.4-0.3-2.8-0.5-4.1-0.8c-8.5-1.5-15.9-4.3-21-12.4c-4.5-7.1-12.1-8.9-20.2-7.6
		c-8,1.3-14.2,5.2-17.4,13.1c-1.4,3.6-1.3,7.1,0.9,10.3c3.1,4.5,7.2,8.1,12,10.7c1,0.5,2.8,1.7,3.2,0.6c1.5-5.1,5.8-8.1,8.2-12.3
		c0.8-1.5-0.9-3-2-4c-1.3-1.2-2.8-2.3-4.1-3.5c-1.1-1-1.4-2.4-0.8-3.9c0.6-1.5,2-2.2,3.4-1.8c5.1,1.6,8.6,5.1,10.5,10
		c1.5,3.9,0.3,7.4-2.8,10.3c-6.7,6.2-6.4,8.6,1.3,12.7c4.2,2.3,6.4,5.5,5.7,10.2c-0.6,4.6-1.6,9.1-2.3,13.6c-0.4,2.6-0.9,5,2.7,6.2
		c7.6,2.6,12.3,8.8,16.8,15c1.6,2.1,3.4,4.6,0.2,6.7c-2.9,2-4.3-0.7-5.7-2.6c-3.6-4.8-7.2-9.8-12.9-12.3c-8.8-3.9-9.8-5.7-7.9-15.1
		c0.5-2.4,0.9-4.7,1.6-7c1.5-5,0.1-8.1-5.1-10.1c-11.3-4.5-21.9-10.2-28.6-21.1c-1.7-2.8-3.2-1.4-4.7,0
		c-5.4,5.2-10.3,10.7-12.6,18.1c-0.7,2.3-2.1,4.2-4.9,3.2c-2.4-0.9-2.2-3.1-1.7-5.2c1.1-4.1,3-7.9,5.7-11.2
		C101.7,106.8,104.6,103.4,107.6,99.7z M129.1,244c4.5,1.5,8.3,2.7,12.1,3.9c2.4,0.8,5,1.8,3.7,5c-1.2,3-3.7,2.4-6.2,1.5
		c-1.5-0.6-3-1.1-4.6-1.4c-6.9-1.5-13.7-3.4-20.8-1.1c-5.6,1.9-6.3,3.8-3,8.8c8.6,13.3,25.3,17.2,39.9,9.4c6.2-3.3,7.8-9.2,3.5-14.8
		c-6.2-8.1-4.5-16.6-1.9-25.2c0.6-2.1,2.1-3.6,4.5-2.9c2.4,0.8,2.6,2.7,2,4.9c-1,3.7-1.9,7.4-1.7,11.3c0.4,7.5,3.6,9.9,10.5,7.3
		c3.7-1.3,7.8-2.8,11.1-1c5.5,3,9.9,4.7,15.6,0c2.5-2.1,7.1-1.2,10.6-0.1c6.4,2,12.3,4.9,17.7,8.9c2,1.5,4.2,3.3,2.1,5.9
		c-2,2.5-4.2,1.1-6.3-0.5c-5-3.8-10.6-6.6-16.7-8.1c-5.4-1.3-8.5,0.9-9.3,6.4c-1.2,8.1,1.4,15,7.1,20.8c1.9,1.9,3.9,2.2,6.5,1.7
		c13.9-2.7,24.4-10.7,33.7-20.8c2.3-2.5,3.7-5,2.2-8.6c-1.6-3.7-4-6.1-8-6.3c-2.8-0.2-5.6,0.2-8.4,0.3c-1.9,0.1-3.8-0.1-4.2-2.4
		c-0.5-2.5,1.1-3.6,3.1-4.4c8.5-3.3,18.8,0.3,23.1,8c1,1.8,1,6,5,2.7c2.8-2.3,7.3-3.5,3.3-8.6c-5.8-7.3-13.2-10.9-22.3-11.2
		c-8.9-0.3-17.7,0.8-26.2,3.2c-9.9,2.8-18.1,0.4-25.4-6.6c-4.6-4.5-9.6-8.6-15.1-12c-4.3-2.7-8.9-4.8-14.1-4.8c-5,0-10.8,1-11.7,6.4
		C139.2,228.7,135.4,236.3,129.1,244z M182.5,189.7c-0.4,0.3-0.8,0.7-1.2,1c0.2,0.9,0.3,1.9,0.5,2.8c1.9,8.5,5.1,17,0.8,25.8
		c-0.9,1.9,0.8,2.9,1.9,4c6.2,6.5,13.3,8.9,22.3,6.3c9.9-2.9,20.1-4.1,30.3-2.9c11,1.3,19.5,6.9,25.4,16.3c1.5,2.4,3.1,2.8,5.5,1.5
		c1.7-0.9,3.1-1.4,2.4-4c-2.5-9.2-5.9-17.2-16.5-20.2c-12.3-3.5-24.9-6.2-36.2-12.7c-2.6-1.5-4.1,0.2-5.7,1.7
		c-2.8,2.6-5.7,5.1-9.5,6.1c-1.8,0.5-3.7,0.3-4.7-1.7c-1-2,0.2-3.4,1.9-4.5c1.7-1.1,3.5-2,5.1-3.1c1.3-0.9,3.1-2,2.9-3.6
		c-0.2-1.9-2.5-1.8-3.9-2.1C195.7,199.2,187.8,197.2,182.5,189.7z M364.4,152.5c-0.2,0.9-0.4,1.7-0.4,2.4c0,2.7-0.1,5.7-3.5,6
		c-3.8,0.3-3.5-2.9-3.8-5.5c-0.3-3.3-1.8-5.7-5.3-6.3c-4-0.8-5.9-3.3-5.3-7.3c0.8-5.5-1.7-6.3-6.2-4.7c-7.4,2.7-13.2,0.4-18.3-5.3
		c-4-4.4-7.8-9.3-14.6-9.7c-1.7-0.1-2.8-1.6-2.6-3.5c0.2-1.7,1.5-2.8,3.2-3.1c3.6-0.5,6.9,0.4,9.6,2.6c2.8,2.3,5.6,4.7,7.8,7.4
		c4,4.9,8.5,6.4,14.8,4.4c4.5-1.4,4.7-2.8,2.6-6.4c-7.6-12.9-30.3-19.4-43.3-12.3c-3,1.6-3.6,4.1-3.5,7c0.1,8.3,5.1,14.4,13.8,16.6
		c5.3,1.3,11.6,1.5,14.8,5.9c5.1,6.9,12.9,10.2,18.6,15.9c7,6.9,14.9,10.7,24.3,11.5c2.8,0.2,6.6,3,8.2,0.2c1.9-3.3-0.8-6.9-3.1-9.8
		C370.4,155.9,368.3,153.1,364.4,152.5z M55.6,201.1c-0.3-6.6-1-13.2-2.7-19.6c-2-7.4-8.4-11.9-14.1-10.3c-1.3,0.4-3,0.5-3.3,2.1
		c-0.3,1.4,1.1,2,2,2.7c3.9,3.3,7.1,7.1,9.4,11.6c1.2,2.4,3.3,5.4-0.3,7.3c-3.2,1.7-4.5-1.5-5.7-3.7c-2.1-3.9-4.7-7.5-8.2-10.2
		c-1.7-1.3-3.6-2.4-4.9,0.3c-3.7,7.4-7.3,15.6-2,22.8c4.9,6.7,7.4,11.9,0.6,18.3c-0.8,0.8-1.1,2.2-0.2,3.3c0.8,0.9,1.9,0.5,2.8,0.2
		c4.1-1,8.2-2.1,12.2-3.1c3-0.8,3.6-2.1,1.1-4.4c-3.5-3.3-5.4-7.4-6.3-12.1c-0.4-2.2-0.1-4.2,2.3-4.9c2.5-0.7,3.6,1,4.3,3.2
		c1,3.3,2.3,6.4,4.7,9c2.9,3.1,5.1,2.7,6.7-1.3C55.2,208.7,55.8,204.9,55.6,201.1z M246.7,269.6c23.9,2.5,47,2.5,70.2-0.8
		c14.3-2.1,27.8-6.2,38.7-16.3c1.6-1.4,5.1-2.9,3.3-5.3c-1.6-2.1-5.1-3.1-8.3-2.3c-0.9,0.2-1.7,1-2.6,1.5c-9.4,6.4-20,10.1-31,12.5
		c-19.9,4.4-40.2,4.6-60.5,4.1C251.7,263,248.9,264.4,246.7,269.6z M252.3,276.3c5.9,6.8,7.7,7.5,15.5,8.1c12,1,24,0.9,36-0.2
		c22-2.1,43.3-6.4,60.8-21.4c1.4-1.2,2.8-2.3,3.8-3.8c1.8-2.3,0.9-4.7-0.9-6.5c-2.3-2.3-3.6,0.2-4.9,1.5
		c-9.3,9.5-20.6,15.1-33.3,18.3C304.3,278.6,278.6,277.7,252.3,276.3z M340.7,244.1c-16.6-6.4-68.2,2.1-80.7,13.3
		C288.1,257.6,315,257.1,340.7,244.1z M190.6,284.5c-3-5.7-5.3-10.3-5.9-15.5c-1.3-11.7-6.3-14.6-17.4-11.3c-4.9,1.5-5.7,4.6-3.8,8
		C169.3,275.7,178,281.8,190.6,284.5z M272,290.6c3.8,3,6.3,5.3,9.6,5.3c19,0,38-0.3,56.2-7.1c4.4-1.7,8.2-4.2,11.6-9.3
		C324.3,289.6,299.1,291.3,272,290.6z M42.1,247.3c4-0.6,8.6-0.1,10.9-4.6c2.6-5.1-1-9.2-2.3-13.6c-0.4-1.5-1.7-1.5-2.9-1.1
		c-6.1,1.8-12.2,3.6-18.4,5.3c-3.2,0.9-3.5,2.8-2,5.4C30.8,244.1,35.2,247.7,42.1,247.3z M49.4,151.8c-0.1,5.9,0.5,7.1,3.2,6.6
		c12.7-2.5,15.2-7.1,10.6-19.3c-0.5-1.3-1.1-2.6-1.6-3.9c-1-2.7-2.3-2.8-4.3-0.8C52.6,139.3,49.2,144.7,49.4,151.8z M296.1,301.4
		c6.3,4.7,16.4,4.1,23.9-1.8C311.5,300.7,304,301.3,296.1,301.4z"/>
	<path class="st0" d="M350.5,186.4c-9.2-0.8-9.6-0.5-11.5,8.5c-1,4.7-2,9.5-3.9,13.9c-2.7,6.2-6.8,10.8-14,11.8
		c-4.1,0.6-7.5,2.4-10.6,5.3c-3.7,3.5-8.3,5.6-13.5,5.9c-2.3,0.1-4.7-0.2-5-3.1c-0.2-2.6,1.7-3.5,3.9-3.6c6.6-0.3,10.5-5.4,15.7-8.4
		c1.4-0.8,1.9-1.9,1.7-3.5c-1.5-10.7-3.6-21.1-12.4-28.5c-1.8-1.5-3.4-3.3-1.7-5.6c2.1-2.7,4.4-1.2,6.3,0.4
		c8.6,7.3,12.4,17,14.1,27.8c0.3,2-0.4,5,2.6,5.4c2.4,0.3,3.8-1.9,5-3.8c3.4-5.4,4.4-11.6,5.6-17.7c2.1-10.2,9.1-14.5,19.1-11.5
		c2.2,0.7,4.4,1.6,3.7,4.5C354.8,186.7,352.6,186.7,350.5,186.4z"/>
	<path class="st0" d="M81.1,249c0.6-6.1,4.4-9.8,10.1-11.3c3.6-0.9,4.8-2.4,3.2-5.8c-0.1-0.2-0.1-0.4-0.1-0.6
		c-0.4-8.1-1.9-15.3-12.5-15.2c-1.4,0-2.8-1.4-4.1-2.4c-1.6-1.3-2.1-3-0.9-4.8c1.1-1.5,2.6-1.7,4.3-0.9c1.6,0.8,3.2,1.8,4.9,2.3
		c4.2,1.3,8.1,1.5,8.8-4.5c0.1-0.6,0.3-1.2,0.6-1.7c0.9-2.2,1.8-5,4.9-4.1c3.2,1,2.4,3.7,1.7,6c-1.4,4.2-2.1,8.6-2.1,13
		c0,1.2-0.1,2.4,0.1,3.6c0.6,4.2-0.6,10.4,4.2,11.5c5,1.2,9.2-3.1,12.2-7.3c1-1.4,1.7-3.2,2.3-4.8c0.9-2.4,1.8-5,4.9-3.8
		c3,1.1,2.3,4,1.6,6.3c-2.6,8.2-8.3,13.7-16.4,16.4c-4.5,1.5-9.4,2.1-14.1,3.2c-3.6,0.8-6.5,2.1-6.7,6.5c-0.1,2.2-1.3,4-3.8,3.7
		C81.2,253.8,81.2,251.4,81.1,249z"/>
	<path class="st0" d="M101.5,156.6c1.5-9.8,4.7-19.6,12.6-27.2c6.6-6.3,16.7-7.3,24.6-2.9c2,1.1,3.9,2.4,2.7,5.2
		c-1.1,2.4-3.3,2.2-5.2,1.4c-6.1-2.7-12.2-3.6-17.3,1.5c-6.6,6.6-10,14.9-10.1,24.3c0,2.1,1.2,3.7,2.8,5.1c1.7,1.5,2.4,3.3,0.6,5.2
		c-1.8,1.9-3.7,1.1-5.4-0.2C102.9,166.1,101.9,161.9,101.5,156.6z"/>
</g>
</svg>
