<?xml version="1.0" encoding="utf-8"?>
<!-- Generator: Adobe Illustrator 27.8.0, SVG Export Plug-In . SVG Version: 6.00 Build 0)  -->
<svg version="1.1" id="Layer_1" xmlns="http://www.w3.org/2000/svg" xmlns:xlink="http://www.w3.org/1999/xlink" x="0px" y="0px"
	 width="400px" height="200px" viewBox="0 0 400 200" style="enable-background:new 0 0 400 200;" xml:space="preserve">
<style type="text/css">
	.st0{fill:#4B9B45;stroke:#4B9B45;stroke-width:2;stroke-miterlimit:10;}
	.st1{fill:#3B56A6;}
</style>
<g>
	<path class="st0" d="M52.5,172.5c-1.8,4.5-3.5,8.9-5.6,14.2c-2.1-5.3-4-9.9-5.9-14.5c-0.2,0-0.3,0.1-0.5,0.1
		c-0.8,3.8-1.7,7.5-2.5,11.3c-0.2,1-0.2,2.4-1.7,2c-1.2-0.3-0.5-1.5-0.3-2.2c1.3-6.1,2.7-12.3,4.6-18.4c2,5.2,4,10.4,6,15.5
		c0.2,0,0.4,0,0.6,0c2-5.1,4-10.3,6-15.4c0.2,0,0.4,0,0.6,0c1.4,6.5,2.8,12.9,4.2,19.4c0.1,0.5,0.1,1.1-0.6,1.2
		c-0.9,0.1-1.3-0.4-1.4-1.1c-0.5-1.9-0.9-3.9-1.3-5.8c-0.5-2-0.9-4-1.4-6C53,172.6,52.7,172.6,52.5,172.5z"/>
	<path class="st0" d="M120.6,172.4c-1,2.4-1.9,4.7-2.8,7c-0.9,2.2-1.8,4.4-2.9,7.3c-2.1-5.2-3.9-9.8-5.8-14.4c-0.2,0-0.4,0-0.5,0
		c-0.7,3.3-1.5,6.7-2.2,10c-0.1,0.7-0.3,1.3-0.5,2c-0.2,0.9-0.6,1.5-1.6,1.3c-1-0.3-0.6-1.1-0.5-1.7c1.1-5.2,2.2-10.3,3.4-15.4
		c0.3-1.1,0.3-2.4,1.2-3.7c2.1,5.4,4.1,10.6,6.1,15.8c0.2,0,0.4,0,0.6,0c2-5.1,4-10.3,6-15.4c0.2,0,0.4,0,0.6,0
		c0.9,4.2,1.9,8.3,2.8,12.5c0.4,2,0.9,4.1,1.3,6.1c0.1,0.7,0.7,1.6-0.5,1.9c-1.2,0.3-1.4-0.7-1.6-1.6c-0.6-2.9-1.2-5.8-1.9-8.6
		C121.7,174.5,121.8,173.4,120.6,172.4z"/>
	<path class="st0" d="M152.3,185.9c-5.6,0-10.3-4.7-10.4-10.4c0-5.5,4.9-10.4,10.4-10.4c5.6,0,10.5,4.8,10.5,10.3
		C163,181,158,185.9,152.3,185.9z M160.7,175.5c0-4.6-3.8-8.4-8.4-8.4c-4.5,0.1-8.1,3.8-8.1,8.3c0,4.7,3.7,8.4,8.4,8.3
		C157.1,183.8,160.7,180.1,160.7,175.5z"/>
	<path class="st0" d="M193.4,185.4c-1.8,0.7-2.7,0-3.4-1.1c-1.3-1.8-2.7-3.6-4-5.4c-0.6-0.8-1.3-1.4-2.4-1.1
		c-1.1,0.4-0.9,1.4-0.9,2.2c-0.1,1.5,0,2.9-0.1,4.4c0,0.7-0.2,1.2-1,1.2c-0.8,0-1-0.6-1-1.2c0-5.9,0-11.7,0-17.6
		c0-0.5,0.2-1.2,0.8-1.1c3.4,0,7-1.2,9.9,1.5c3.4,3.1,2.7,7.8-1.7,9.9c-1.8,0.8-1.6,1.4-0.6,2.7
		C190.6,181.4,191.9,183.4,193.4,185.4z M182.7,171.6c0,4.1,0,4.1,3.3,4c3.6,0,5.3-1.3,5.3-4.1c0-2.9-1.7-4.1-5.6-4
		C182.7,167.5,182.7,167.5,182.7,171.6z"/>
	<path class="st0" d="M329.7,186.2c-2.9-0.2-5.4-0.5-7-3.1c-0.3-0.6-1.2-1.4-0.2-2c0.7-0.4,1.5-0.3,2,0.6c1.7,2.9,4.5,2.5,7.2,2.1
		c1.8-0.3,3-1.4,3.2-3.3c0.2-1.8-1-2.7-2.5-3.2c-1.9-0.7-3.8-1.2-5.7-1.9c-3.3-1.2-4.5-2.9-4.2-5.7c0.3-2.5,2.3-4.3,5.4-4.7
		c2.7-0.3,5.2,0,7.1,2.1c0.4,0.5,1.3,1.3,0.5,2c-0.7,0.6-1.5,0.2-2-0.5c-1.6-2.2-3.9-1.9-6.1-1.6c-1.5,0.2-2.5,1.2-2.7,2.8
		c-0.2,1.5,0.6,2.6,1.9,3.1c2,0.8,4.1,1.4,6.1,2.1c3.4,1.3,4.6,2.8,4.4,5.5c-0.2,2.6-2.2,4.6-5.3,5.3
		C331,186.1,330.2,186.1,329.7,186.2z"/>
	<path class="st0" d="M292.4,175.6c0-2.7,0.1-5.4,0-8c0-1.5,0.4-2.2,2-2.2c2.8,0.1,5.7,0,8.6,0c0.7,0,1.5,0.1,1.4,1.1
		c-0.1,0.8-0.7,0.9-1.3,0.9c-2.1,0-4.1,0.1-6.2,0c-1.6-0.1-2.5,0.5-2.3,2.2c0,0.2,0,0.3,0,0.5c0,4.9-0.4,4.2,4.3,4.3
		c1.2,0,2.4,0,3.6,0c0.8,0,1.7,0,1.6,1.1c-0.1,1-0.9,0.9-1.6,0.9c-2,0-4,0.1-6,0c-1.4,0-2,0.4-2.1,1.9c-0.3,5.4-0.3,5.4,5,5.4
		c1.2,0,2.4,0,3.6,0c0.6,0,1.2,0.1,1.2,1c0,0.6-0.4,0.9-1,0.9c-3.3,0-6.6,0.1-9.8,0c-1.2,0-1.1-1.2-1.1-2
		C292.4,181,292.4,178.3,292.4,175.6z"/>
	<path class="st0" d="M74.8,175.7c0-2.7,0.1-5.4,0-8c0-1.5,0.4-2.2,2-2.2c2.8,0.1,5.7,0,8.6,0c0.6,0,1.3-0.1,1.4,0.8
		c0.1,1-0.6,1.1-1.4,1.1c-2,0-4,0.1-6,0c-1.8-0.1-2.6,0.5-2.6,2.5c0.1,5.4-0.4,4.5,4.5,4.6c1.3,0,2.6,0,3.9,0c0.7,0,1.2,0.2,1.2,1
		c0,0.8-0.6,0.9-1.3,0.9c-2,0-4,0.1-6,0c-1.7-0.1-2.5,0.4-2.4,2.3c0.2,6.1-0.6,4.9,4.9,5c1.3,0,2.6,0,3.9,0c0.7,0,1.2,0.1,1.2,1
		c0,0.6-0.4,0.9-1,0.9c-3.3,0-6.6,0-9.8,0c-1.3,0-1.1-1.1-1.1-1.9C74.8,181.1,74.8,178.4,74.8,175.7z"/>
	<path class="st0" d="M357.4,176.7c0-2.2-0.1-4.3,0-6.5c0.1-2-0.4-3.1-2.7-3c-0.7,0.1-2,0.4-2.1-0.9c-0.1-1.5,1.2-1.2,2.1-1.2
		c2.6-0.1,5.2,0,7.8,0c0.8,0,1.9-0.2,1.9,1.1c0,1.1-1.1,1-1.8,0.9c-2.5-0.2-3.1,0.9-3.1,3.2c0.1,4.4,0,8.8,0,13.2
		c0,0.8,0.2,1.9-1.1,1.9c-1.3,0-1.1-1.1-1.1-1.9C357.4,181.4,357.4,179,357.4,176.7C357.4,176.7,357.4,176.7,357.4,176.7z"/>
	<path class="st0" d="M225.8,165.9c-1,2.3-2.6,4.3-4.2,6.1c-2.3,2.7-3.4,5.7-2.9,9.2c0.1,1,0,2.1,0,3.1c0,0.6-0.1,1.2-1,1.3
		c-0.8,0-1-0.5-1.1-1.2c0-0.2-0.1-0.4,0-0.5c1.4-6.6-2.2-11.3-5.9-16c-0.5-0.6-1.7-1.5-0.7-2.2c0.9-0.7,1.9,0,2.6,1
		c1.3,2,2.8,4,4.1,6c0.8,1.1,1.3,1.1,2.1,0c1.3-1.9,2.7-3.8,4-5.7C223.5,165.8,224.3,165.1,225.8,165.9z"/>
	<path class="st0" d="M268.4,176.6c0-2.3-0.1-4.7,0-7c0.1-1.7-0.6-2.4-2.3-2.3c-0.5,0-1,0-1.6,0c-0.5,0-1-0.2-1.1-0.9
		c-0.1-0.8,0.5-1.1,1.1-1.1c3.2,0,6.4,0,9.6,0c0.7,0,1.2,0.4,1.1,1.1c-0.1,0.8-0.8,0.9-1.3,0.8c-3.3-0.6-3.6,1.4-3.5,4
		c0.1,4.1,0.1,8.1,0,12.2c0,0.8,0.4,2.2-1.1,2.2c-1.5-0.1-1-1.4-1-2.2C268.4,181.1,268.5,178.9,268.4,176.6
		C268.5,176.6,268.5,176.6,268.4,176.6z"/>
</g>
<g>
	<path class="st1" d="M76.6,135.6c2.8-7.7,4.9-15,6.8-22.3c1.7-6.4,1.7-6.3,8.2-6.4c2.2-0.1,3,0.6,3.6,2.7c2.1,7.7,4.6,15.3,6.9,23
		c0.2,0.7,0.3,1.5,1.3,2.2c0.7-3.3,1.5-6.4,2.2-9.6c1.4-7.2,2.8-14.3,4.1-21.5c0.3-1.5,0.8-2,2.2-1.9c2.6,0.1,5.2,0.1,7.7,0
		c1.2,0,1.8,0,1.5,1.6c-3.1,15.4-7,30.5-11.7,45.4c-0.4,1.3-1,1.7-2.3,1.6c-2.1-0.1-4.2-0.1-6.3,0c-1.5,0.1-2.2-0.4-2.7-1.9
		c-2.6-8.2-5.3-16.5-7.9-24.7c-0.2-0.5-0.1-1.1-0.9-1.6c-1.2,3.8-2.3,7.5-3.5,11.2c-1.6,5-3.3,10.1-4.9,15.1c-0.4,1.3-1,1.9-2.5,1.8
		c-2.2-0.1-4.4-0.1-6.6,0c-1.4,0.1-1.9-0.5-2.2-1.7c-4.8-14.9-8.5-30.1-11.7-45.4c-0.3-1.4,0.2-1.6,1.4-1.5c2.8,0,5.6,0.1,8.4,0
		c1.5-0.1,1.9,0.6,2.2,2c1.8,9.8,3.6,19.6,6,29.3C76.1,133.6,76.3,134.3,76.6,135.6z"/>
	<path class="st1" d="M231.2,124c3.7,1.7,6.4,3.8,7.4,7.5c2.6,9.1-2.8,17.2-12.7,18.8c-8,1.3-16,0.8-24-0.4c-1-0.1-1.2-0.6-1.2-1.5
		c0-14.8,0-29.6,0-44.5c0-0.8,0.1-1.6,1.1-1.7c9.1-1.1,18.2-2.4,27,1c7.6,2.9,10.4,11.4,5.9,17.8C233.9,122.2,232.8,123,231.2,124z
		 M211.4,135.1c0,2,0,3.6,0,5.3c0,0.8,0.1,1.4,1,1.5c4.2,0.2,8.4,0.6,12.4-1.2c2.3-1.1,3.2-3,3.1-5.5c-0.1-2.4-1.2-4.1-3.5-4.9
		c-2.2-0.8-4.4-0.9-6.7-0.9c-2,0-4.6-0.6-5.9,0.4C210.5,130.7,211.7,133.4,211.4,135.1z M211.4,115.5c0,1.4,0,2.8,0,4.2
		c0,0.6,0,1.1,0.8,1.1c3.7,0,7.5,0.4,11.1-1c2.1-0.8,2.9-2.7,2.7-4.9c-0.1-2.1-1.2-3.4-3.3-4c-1.9-0.5-3.8-0.8-5.8-0.8
		C211.4,110,211.4,110,211.4,115.5z"/>
	<path class="st1" d="M150.7,100.6c13.7,0.1,23.2,9.2,24.1,23.2c0.3,4.6-0.2,9.2-2,13.5c-3.3,8-9.3,12.5-17.8,13.6
		c-8.7,1.1-16.6-0.6-22.8-7.5c-8.3-9.3-8.6-30.4,4.6-39C140.3,102.2,145.5,100.6,150.7,100.6z M137.7,125.9
		c-0.1,3.7,0.6,7.1,2.4,10.2c4.5,7.6,16.3,7.7,20.7,0c3.4-5.8,3.4-12.1,1.1-18.2c-1.9-5-5.8-7.5-11.2-7.7c-5-0.2-9.3,2.5-11.3,7.2
		C138.1,120.1,137.6,123,137.7,125.9z"/>
	<path class="st1" d="M355.1,119.5c4.9-5.1,9.8-10.2,14.2-15.7c1.2-1.4,2.4-2.4,4.5-2.2c3.4,0.2,6.8,0.1,10.2,0.1
		c0.2,1-0.6,1.4-1,1.9c-5.6,6.6-11.5,13-17.6,19.1c-1.2,1.2-1.1,1.7,0.1,2.8c7.8,6.9,14.1,15.2,19.6,24c0.1,0.2,0.1,0.4,0.2,0.9
		c-4.1,0-8,0-12,0c-1.1,0-1.3-0.9-1.8-1.6c-4.2-6.2-8.8-12.1-14.5-17c-0.5-0.4-1-1.3-1.7-1c-0.8,0.3-0.4,1.2-0.4,1.9
		c0,5.2-0.1,10.5,0,15.7c0,1.6-0.4,2.2-2.1,2.1c-2.4-0.1-4.8-0.1-7.3,0c-1.3,0-1.7-0.3-1.7-1.7c0-15.1,0-30.3,0-45.4
		c0-1.4,0.5-1.7,1.8-1.7c2.4,0.1,4.8,0.1,7.3,0c1.5-0.1,2,0.4,2,2C355,108.9,355.1,114.2,355.1,119.5
		C355.1,119.5,355.1,119.5,355.1,119.5z"/>
	<path class="st1" d="M286.1,150.4c-5.5,0-5.5,0-7.4-5.3c-1.8-5.2-1.8-5.2-7.5-5.2c-3.7,0-7.5,0.1-11.2,0c-1.7-0.1-2.3,0.6-2.8,2.1
		c-0.7,2.4-1.6,4.7-2.4,7.1c-0.3,1.1-0.9,1.4-2,1.4c-2.6-0.1-5.2-0.1-7.7,0c-1.7,0.1-2.1-0.2-1.5-2c3.3-9.5,6.8-18.9,10.6-28.2
		c2.3-5.7,4.9-11.3,7.3-16.9c0.5-1.2,1-1.7,2.3-1.6c2.3,0.1,4.7,0.1,7,0c1.5-0.1,2.2,0.5,2.8,1.8c6.2,13.4,11.5,27.1,16.4,41
		c0.5,1.5,1,2.9,1.6,4.4c0.6,1.4,0.1,1.6-1.2,1.6C289.1,150.3,287.6,150.4,286.1,150.4z M267.3,112.9c-2.4,6.4-4.6,12.2-6.8,18.2
		c4.8,0,9.1,0,13.7,0C272.2,125,269.9,119.1,267.3,112.9z"/>
	<path class="st1" d="M321,151.3c-5.1,0.1-10.1-0.5-14.4-3.2c-5.6-3.4-8.5-8.7-9.7-15c-0.9-5.1-0.9-10.3,0.6-15.3
		c3.6-11.7,11.8-17.5,25.2-17.2c4.3,0.1,8.3,1,12.2,2.9c1.1,0.6,1.5,1.1,0.9,2.4c-0.8,1.8-1.4,3.6-2,5.5c-0.4,1.4-1,1.6-2.3,1
		c-3.4-1.5-7-2.2-10.7-2.1c-6.2,0.2-10.8,3.6-12.3,9.6c-1.1,4.4-1,8.8,0.4,13.2c1.6,5,5.5,8,10.7,8.3c4.4,0.3,8.8,0,12.8-1.9
		c1.3-0.6,1.8-0.3,2.1,0.9c0.3,1.1,0.7,2.2,1.1,3.3c1.4,4.1,1.4,4.2-2.8,5.7C329.1,150.9,325.1,151.4,321,151.3z"/>
	<path class="st1" d="M34.7,101.7c6.1,0,12.2,0,18.3,0c1.6,0,2,0.5,1.9,2c-0.1,1.9-0.1,3.7,0,5.6c0.1,1.4-0.3,1.9-1.8,1.9
		c-3.6-0.1-7.2,0-10.8-0.1c-1.6-0.1-2.1,0.5-2.1,2.1c0.1,11.6,0,23.2,0.1,34.9c0,1.8-0.3,2.5-2.3,2.4c-2.2-0.2-4.5-0.1-6.8,0
		c-1.7,0.1-2.1-0.5-2.1-2.1c0.1-11.5,0-23.1,0.1-34.6c0-2-0.4-2.7-2.5-2.6c-3.5,0.2-7,0-10.5,0.1c-1.1,0-1.7-0.2-1.6-1.5
		c0.1-2,0.1-4.1,0-6.1c-0.1-1.5,0.5-1.8,1.9-1.8C22.5,101.8,28.6,101.7,34.7,101.7z"/>
	<path class="st1" d="M355.1,119.5C355.1,119.5,355.1,119.5,355.1,119.5C355.1,119.5,355.1,119.5,355.1,119.5z"/>
</g>
<g>
	<path class="st1" d="M175.7,23.2c1.1,0.3,1.6-0.3,2.2-1.3c2.1-3.9,7.9-4.5,10.9-2.5c1.1,0.7,1.8,0.9,2.9-0.1c2.8-2.3,10.5-3,14.1,1
		c0.7,0.8,1.2,0.6,1.9,0.2c5-3,13.2,0,15.3,4.4c0.4,0.8,0.8,0.9,1.6,0.8c5.3-0.9,9.4,0.8,12,4.8c0.7,1.1,1.1,2.3,1.2,3.5
		c0.1,1.2,0.7,1.5,1.7,1.8c3.1,0.9,5.1,2.9,5.8,6.1c0.2,1.3,0,2.5-0.5,3.7c-0.4,0.8-0.4,1.4,0.3,2.1c4.9,5.3,3,12.3-1,15.7
		c-0.3,0.3-0.7,0.5-0.8,1.1c-0.1,2-1.4,3.4-2.7,4.8c-2.6,2.9-5.6,5.4-9,7.3c-0.9,0.5-1,1-0.6,1.9c1,2.1,1.7,4.4,1.8,6.8
		c0,0.6,0.1,1.2-0.7,1.3c-0.8,0.1-0.9-0.6-1-1.1c-0.3-2.1-0.7-4.2-1.7-6.1c-0.3-0.6-0.4-1.5-1.5-1c-1.1,0.5-0.3,1.1-0.1,1.6
		c0.6,1.7,1.1,3.4,1.4,5.2c0.1,0.6,0.1,1.2-0.5,1.4c-0.8,0.2-1-0.4-1.2-1c-0.4-2-0.9-3.9-1.8-5.7c-0.3-0.6-0.6-1.1-1.4-1.2
		c-5.5-1-10-4-14.1-7.6c-0.9-0.8-1.4-1-2.4-0.1c-5.1,4.2-10.7,4.8-15.8,1.9c-1.1-0.6-2-1.3-2.8-2.3c-0.5-0.6-0.9-0.6-1.5-0.2
		c-4.9,2.5-9,1.8-12.6-2.2c-0.6-0.6-1-0.7-1.6-0.3c-3.3,2.3-9.4,1-11.8-2.1c-0.5-0.6-1-0.8-1.7-0.7c-5.7,0.7-8.9-6.1-6.6-9.9
		c0.4-0.6,0.3-1.1,0-1.7c-2.4-4.5-0.2-10.3,4.6-12.1c0.8-0.3,1-0.6,0.9-1.5c-0.5-4.6,2.6-8.6,7.3-9.3c0.7-0.1,1-0.5,1.1-1.1
		C168.2,25.7,171.7,23.1,175.7,23.2z M218,23.5c-2.6-2.2-7-2.5-9.6-0.8c-1.7,1.1-1.9,2-0.7,3.6c0.6,0.8,1.4,1.6,2.2,2.3
		c1.7,1.4,2,3.2,1.3,5.2c-0.3,0.7-0.2,1.2,0.4,1.7c1.6,1.6,2.1,3.6,1.5,5.8c-0.5,2.3-1.6,4.3-2.4,6.5c-0.3,0.9-0.6,1.7,0.2,2.5
		c0.4,0.4,0.7,0.9,0.1,1.4c-0.5,0.4-1,0.1-1.5-0.3c-1.1-1.1-1.2-2.4-0.7-3.8c0.6-1.7,1.3-3.5,2-5.2c0.4-1.1,0.7-2.2,0.6-3.4
		c-0.2-2.1-1.5-3.2-3.6-2.9c-1.7,0.2-3.3-0.1-4.9-0.6c-0.6-0.2-1.3-0.5-1-1.3c0.3-0.8,0.9-0.6,1.5-0.4c1.3,0.4,2.6,0.7,4,0.6
		c0.8,0,1.5,0,1.9-0.9c0.4-1,0.6-1.9,0-2.9c-0.3-0.4-0.7-0.8-1.1-1.2c-1.6-1.5-2.9-3.1-3.1-5.5c-0.1-1.1-0.9-2-1.8-2.6
		c-0.4-0.3-0.8-0.8-1.3-0.3c-0.4,0.4-0.4,0.9-0.1,1.4c0.3,0.6,0.6,1.3,0.9,1.9c0.8,1.9-0.1,5.5-1.5,6.5c-0.5,0.3-1,0.7-1.5,0.1
		c-0.4-0.5-0.2-0.9,0.2-1.3c1.4-1.6,1.8-3.4,0.8-5.4c-0.6-1.1-1-2.2-0.6-3.5c0.2-0.6-0.1-0.9-0.6-0.9c-0.9,0-1.7,0-2.6,0
		c-1.5,0.1-3,0.5-4.2,1.5c-0.4,0.4-1.1,0.7-1,1.4c0.1,0.6,0.8,0.7,1.4,0.8c0.9,0.2,1.8,0.3,2.7,0.5c2.7,0.6,3.8,2.2,2.9,4.8
		c-0.6,1.8-0.4,3.3,0.6,4.8c0.5,0.9,1,1.8,1.4,2.7c0.8,1.8,1.6,3.6,1.4,5.6c-0.1,1.4,0.5,2.2,1.6,3c0.7,0.4,1,0.3,1.1-0.4
		c0.3-1.5,0.5-3.1,0.5-4.6c0-0.7,0-1.4,1-1.4c0.8,0,0.8,0.8,0.8,1.4c-0.1,3.5-0.5,7-2.6,10.1c-0.5,0.7-0.4,1,0.3,1.4
		c1.1,0.6,2.2,1,3.3,1.3c2,0.6,4.1,1,6,1.9c1.9,0.9,2.1,0.8,3.3-1c0.3-0.5,0.5-1.1,0.8-1.6c0.4-0.8,0.2-1.2-0.6-1.6
		c-1.9-0.9-2.8-2.5-3.4-4.4c-0.2-0.6-0.3-1.2,0.4-1.4c0.7-0.2,1,0.2,1.2,0.8c0.2,0.5,0.3,1.1,0.6,1.5c0.4,0.7,1,1.8,1.8,1.6
		c0.8-0.2,0.3-1.4,0.1-2.1c-0.5-2.5,0.2-4.6,2.4-6c1-0.7,2.2-1.2,3.4-1.6c0.8-0.2,2-0.9,2.4,0.3c0.4,1.3-1,1.2-1.8,1.4
		c-4.1,1.2-5,2.6-4.4,6.8c0.3,2.8,0.3,5.7-1.8,7.8c-1.4,1.5-1.4,2.8-0.6,4.4c0.1,0.1,0.1,0.3,0.1,0.4c0.2,0.9,0.7,1,1.5,0.8
		c3-0.8,6.1-1.2,9.2-1.2c2.1,0.1,3.4-0.9,4.7-2.2c0.9-1,1.7-2,1.8-3.4c0.1-0.5,0.3-0.9,0.9-0.8c0.6,0,0.8,0.5,0.7,0.9
		c-0.1,1,0.4,1.1,1.2,1.2c1.2,0.1,2.3,0.7,3.1,1.7c0.4,0.4,0.7,0.9,0.1,1.5c-0.5,0.5-1,0.1-1.4-0.3c-2.3-2-4.7-1.4-5.8,1.5
		c2.5,0.3,4.9,0.8,7,2.2c0.5,0.4,0.9,0.2,1.3-0.2c2.7-2.2,2.9-5,0.4-7.5c-1.4-1.4-3.2-2.2-5.1-2.7c-0.5-0.1-0.9-0.4-0.8-1.1
		c0.1-0.6,0.7-0.7,1.2-0.6c0.9,0.1,1.6,0.4,2.4,0.8c1.8,0.7,3.3,1.9,4.7,3.3c-0.1-2.3-1.3-3.9-2.8-5.3c-0.6-0.5-1.1-1-0.7-1.9
		c0.7-1.7,0.7-1.8-1.2-2c-2.8-0.3-5.2-1.3-7-3.4c-0.2-0.2-0.4-0.3-0.6-0.5c-0.6-0.5-1-0.4-1,0.4c-0.1,1.1-0.4,2.1-0.8,3
		c-0.2,0.5-0.5,0.9-1.1,0.7c-0.6-0.2-0.6-0.7-0.5-1.3c0.1-0.4,0.3-0.9,0.4-1.3c1-3.3,0.1-4.9-3.2-5.9c-0.3-0.1-0.7-0.2-1-0.3
		c-1-0.5-1.8-0.3-2.6,0.5c-1.7,1.7-3.8,2.2-6.1,1.3c-0.7-0.2-1.7-0.5-1.3-1.5c0.4-0.9,1.2-0.4,1.8-0.2c0.2,0.1,0.4,0.1,0.6,0.2
		c1.6,0.5,2.8-0.1,4-1.2c1.1-1.1-0.2-1.7-0.5-2.5c-0.5-1.4-0.5-2.8-0.3-4.3c0.2-1.5-0.4-2.9-1.3-3c-2-0.4-4.1,1.5-4,3.6
		c0.1,0.9,0,1.8-0.7,2.6c-0.3,0.4-0.8,0.7-1.3,0.3c-0.5-0.3-0.5-0.8-0.2-1.2c0.5-0.7,0.4-1.4,0.4-2.2c-0.1-1.5,0.5-2.6,1.7-3.5
		C216.4,24.4,217.2,24,218,23.5z M175.6,25.6c-3.4-0.4-6.6,2.7-6.2,5.9c0.2,1.3-0.4,1.8-1.7,1.5c-0.3-0.1-0.7-0.1-1-0.2
		c-1.2-0.2-1.5,0.2-0.9,1.3c0.6,1.2,1.1,2.4,1,3.8c-0.1,1.2,0.3,2.1,1.1,2.9c1.2,1.2,2.3,2.7,2.7,4.5c0.3,1.4-0.2,2.5-1.2,3.4
		c-0.5,0.4-1,0.6-1.5,0.1c-0.4-0.5-0.1-1,0.3-1.3c1-0.8,0.9-1.8,0.3-2.7c-0.4-0.7-0.9-1.5-1.4-2.1c-1.6-1.9-2.6-2-4.6-0.6
		c-0.6,0.4-0.6,0.7-0.2,1.3c2.2,3.3,2.5,7,1.5,10.8c-0.3,1.2-0.2,1.7,1,2.1c1.6,0.6,2.4,1.9,2.7,3.6c0.1,0.6,0.1,1.2-0.6,1.3
		c-0.8,0.2-0.9-0.5-1-1c-0.2-0.9-0.6-1.7-1.4-2.2c-0.3-0.2-0.6-0.4-1-0.1c-0.3,0.2,0,0.6,0.1,0.8c0.6,1.4,0.6,2.8-0.3,4.2
		c-0.5,0.7,0,1.2,0.4,1.7c2.6,2.8,7.4,2.7,9.9-0.1c0.9-1,1.8-2.2,3.2-2.3c2.3-0.2,3.3-1.8,4.3-3.4c1.6-2.5,1.2-4.9-0.9-7
		c-0.9-0.9-2-1.6-3-2.2c-2.2-1.3-4.2-2.9-5.6-5.2c-1.6-2.6-1.9-5.4-0.6-8.2c0.3-0.6,0.6-1.5,1.5-1c0.8,0.4,0.3,1.1,0.1,1.7
		c-1.2,2.9-0.5,5.9,1.6,8c0.3,0.3,0.6,0.6,1.2,0.6c2.4-0.2,4.9,0.9,7.2-0.7c0.3-0.2,0.8-0.1,1.1,0.3c0.3,0.5,0.1,0.9-0.3,1.2
		c-0.4,0.3-0.9,0.5-1.3,0.7c-1.3,0.7-2.8,0.5-4.6,0.6c2.5,1.6,4.7,2.9,5.8,5.3c0.2,0.4,0.5,0.4,0.9,0.2c2.7-1.4,5.1-0.4,7.4,0.9
		c0.4,0.2,0.9,1,1.4,0.5c0.5-0.4,0.5-1.1,0.3-1.7c-0.3-1.4-0.6-2.7-0.9-4.1c-0.1-0.6-0.1-1.3-1-1.3c-0.7,0-1.2,0.2-1.5,0.9
		c-0.5,1.3-1.5,2.2-2.9,2.6c-0.5,0.1-1,0.2-1.3-0.4c-0.2-0.6,0.1-1,0.7-1.2c0.7-0.2,1.3-0.5,1.7-1.2c0.3-0.5,0.5-1-0.2-1.4
		c-2.7-1.6-4.2-4.2-5.8-6.8c-0.7-1.1-1.4-2.4-2.5-3.2c-0.4-0.3-0.8-0.6-0.4-1.1c0.4-0.5,0.8-0.7,1.4-0.3c0.7,0.5,1.3,1.2,1.8,2
		c1.2,1.8,2.4,3.6,3.6,5.4c1.4,2,3.3,3.1,5.9,2.9c2.5-0.2,4-2.1,3.1-4.4c-1.5-4-2.1-8.4-5.3-11.7c-0.1-0.1-0.1-0.2-0.2-0.3
		c-0.2-0.4-0.2-0.8,0.2-1.1c0.4-0.3,0.8-0.2,1.1,0.1c0.3,0.3,0.5,0.6,0.8,0.9c3.4,3.9,4,8.9,5.6,13.5c0.3,0.8,0,1.6-0.7,2.3
		c-1.7,1.5-1.7,1.6,0.2,3c0.6,0.5,1.3,0.7,2.1,0.9c0.7,0.1,1.6,0.2,2.2,0.5c1.4,0.8,1.9-0.1,2.5-1c0.8-1.2-0.3-1.5-0.9-2
		c-1.1-0.8-2.2-1.7-2.1-3.1c0.1-3.2-1.2-6-2.7-8.6c-1.1-1.9-1.6-3.8-0.7-6c0.7-1.8,0.2-2.4-1.7-2.9c-0.3-0.1-0.7-0.1-1-0.2
		c-2.1-0.4-4-1.1-5.3-3.1c-1.1-1.8-3-2.2-5.1-1.9c-2,0.3-3.6,1.3-4.3,3.3c-0.4,0.9-0.3,1.8,0.2,2.6c0.8,1.1,1.8,2,3,2.7
		c0.2,0.1,0.7,0.4,0.8,0.2c0.4-1.3,1.4-2,2-3.1c0.2-0.4-0.2-0.7-0.5-1c-0.3-0.3-0.7-0.6-1-0.9c-0.3-0.3-0.3-0.6-0.2-1
		c0.1-0.4,0.5-0.6,0.9-0.4c1.3,0.4,2.2,1.3,2.6,2.5c0.4,1,0.1,1.8-0.7,2.6c-1.7,1.5-1.6,2.1,0.3,3.2c1.1,0.6,1.6,1.4,1.4,2.6
		c-0.2,1.1-0.4,2.3-0.6,3.4c-0.1,0.6-0.2,1.2,0.7,1.6c1.9,0.6,3.1,2.2,4.2,3.7c0.4,0.5,0.8,1.1,0.1,1.7c-0.7,0.5-1.1-0.2-1.4-0.7
		c-0.9-1.2-1.8-2.4-3.2-3.1c-2.2-1-2.4-1.4-2-3.8c0.1-0.6,0.2-1.2,0.4-1.8c0.4-1.3,0-2-1.3-2.5c-2.8-1.1-5.5-2.6-7.1-5.3
		c-0.4-0.7-0.8-0.4-1.2,0c-1.4,1.3-2.6,2.7-3.1,4.5c-0.2,0.6-0.5,1-1.2,0.8c-0.6-0.2-0.6-0.8-0.4-1.3c0.3-1,0.8-2,1.4-2.8
		C174.1,27.4,174.9,26.5,175.6,25.6z M181,61.7c1.1,0.4,2.1,0.7,3,1c0.6,0.2,1.2,0.5,0.9,1.2c-0.3,0.7-0.9,0.6-1.5,0.4
		c-0.4-0.1-0.8-0.3-1.1-0.4c-1.7-0.4-3.4-0.9-5.2-0.3c-1.4,0.5-1.6,1-0.8,2.2c2.2,3.3,6.3,4.3,10,2.3c1.6-0.8,2-2.3,0.9-3.7
		c-1.5-2-1.1-4.2-0.5-6.3c0.2-0.5,0.5-0.9,1.1-0.7c0.6,0.2,0.7,0.7,0.5,1.2c-0.3,0.9-0.5,1.8-0.4,2.8c0.1,1.9,0.9,2.5,2.6,1.8
		c0.9-0.3,2-0.7,2.8-0.2c1.4,0.8,2.5,1.2,3.9,0c0.6-0.5,1.8-0.3,2.6,0c1.6,0.5,3.1,1.2,4.4,2.2c0.5,0.4,1,0.8,0.5,1.5
		c-0.5,0.6-1.1,0.3-1.6-0.1c-1.3-1-2.6-1.7-4.2-2c-1.3-0.3-2.1,0.2-2.3,1.6c-0.3,2,0.3,3.8,1.8,5.2c0.5,0.5,1,0.6,1.6,0.4
		c3.5-0.7,6.1-2.7,8.4-5.2c0.6-0.6,0.9-1.3,0.6-2.2c-0.4-0.9-1-1.5-2-1.6c-0.7,0-1.4,0.1-2.1,0.1c-0.5,0-0.9,0-1.1-0.6
		c-0.1-0.6,0.3-0.9,0.8-1.1c2.1-0.8,4.7,0.1,5.8,2c0.3,0.5,0.2,1.5,1.3,0.7c0.7-0.6,1.8-0.9,0.8-2.2c-1.4-1.8-3.3-2.7-5.6-2.8
		c-2.2-0.1-4.4,0.2-6.6,0.8c-2.5,0.7-4.5,0.1-6.4-1.7c-1.2-1.1-2.4-2.1-3.8-3c-1.1-0.7-2.2-1.2-3.5-1.2c-1.2,0-2.7,0.3-2.9,1.6
		C183.5,57.9,182.6,59.8,181,61.7z M194.4,48.1c-0.1,0.1-0.2,0.2-0.3,0.3c0,0.2,0.1,0.5,0.1,0.7c0.5,2.1,1.3,4.3,0.2,6.5
		c-0.2,0.5,0.2,0.7,0.5,1c1.5,1.6,3.3,2.2,5.6,1.6c2.5-0.7,5-1,7.6-0.7c2.8,0.3,4.9,1.7,6.4,4.1c0.4,0.6,0.8,0.7,1.4,0.4
		c0.4-0.2,0.8-0.4,0.6-1c-0.6-2.3-1.5-4.3-4.1-5.1c-3.1-0.9-6.2-1.6-9.1-3.2c-0.7-0.4-1,0.1-1.4,0.4c-0.7,0.7-1.4,1.3-2.4,1.5
		c-0.5,0.1-0.9,0.1-1.2-0.4c-0.2-0.5,0.1-0.9,0.5-1.1c0.4-0.3,0.9-0.5,1.3-0.8c0.3-0.2,0.8-0.5,0.7-0.9c-0.1-0.5-0.6-0.5-1-0.5
		C197.7,50.5,195.7,50,194.4,48.1z M239.9,38.8c0,0.2-0.1,0.4-0.1,0.6c0,0.7,0,1.4-0.9,1.5c-1,0.1-0.9-0.7-0.9-1.4
		c-0.1-0.8-0.4-1.4-1.3-1.6c-1-0.2-1.5-0.8-1.3-1.8c0.2-1.4-0.4-1.6-1.6-1.2c-1.8,0.7-3.3,0.1-4.6-1.3c-1-1.1-1.9-2.3-3.7-2.4
		c-0.4,0-0.7-0.4-0.6-0.9c0.1-0.4,0.4-0.7,0.8-0.8c0.9-0.1,1.7,0.1,2.4,0.7c0.7,0.6,1.4,1.2,2,1.9c1,1.2,2.1,1.6,3.7,1.1
		c1.1-0.3,1.2-0.7,0.6-1.6c-1.9-3.2-7.6-4.9-10.8-3.1c-0.8,0.4-0.9,1-0.9,1.8c0,2.1,1.3,3.6,3.5,4.2c1.3,0.3,2.9,0.4,3.7,1.5
		c1.3,1.7,3.2,2.6,4.7,4c1.8,1.7,3.7,2.7,6.1,2.9c0.7,0.1,1.7,0.7,2.1,0.1c0.5-0.8-0.2-1.7-0.8-2.4C241.4,39.7,240.9,39,239.9,38.8z
		 M162.6,51c-0.1-1.7-0.2-3.3-0.7-4.9c-0.5-1.8-2.1-3-3.5-2.6c-0.3,0.1-0.7,0.1-0.8,0.5c-0.1,0.4,0.3,0.5,0.5,0.7
		c1,0.8,1.8,1.8,2.3,2.9c0.3,0.6,0.8,1.4-0.1,1.8c-0.8,0.4-1.1-0.4-1.4-0.9c-0.5-1-1.2-1.9-2.1-2.6c-0.4-0.3-0.9-0.6-1.2,0.1
		c-0.9,1.8-1.8,3.9-0.5,5.7c1.2,1.7,1.8,3,0.1,4.6c-0.2,0.2-0.3,0.6,0,0.8c0.2,0.2,0.5,0.1,0.7,0.1c1-0.3,2-0.5,3.1-0.8
		c0.8-0.2,0.9-0.5,0.3-1.1c-0.9-0.8-1.3-1.9-1.6-3c-0.1-0.6,0-1.1,0.6-1.2c0.6-0.2,0.9,0.3,1.1,0.8c0.2,0.8,0.6,1.6,1.2,2.2
		c0.7,0.8,1.3,0.7,1.7-0.3C162.5,52.9,162.7,51.9,162.6,51z M210.4,68.1c6,0.6,11.8,0.6,17.6-0.2c3.6-0.5,7-1.6,9.7-4.1
		c0.4-0.4,1.3-0.7,0.8-1.3c-0.4-0.5-1.3-0.8-2.1-0.6c-0.2,0.1-0.4,0.2-0.6,0.4c-2.4,1.6-5,2.5-7.8,3.1c-5,1.1-10.1,1.1-15.1,1
		C211.7,66.4,211,66.8,210.4,68.1z M211.8,69.8c1.5,1.7,1.9,1.9,3.9,2c3,0.2,6,0.2,9-0.1c5.5-0.5,10.8-1.6,15.2-5.3
		c0.3-0.3,0.7-0.6,1-0.9c0.4-0.6,0.2-1.2-0.2-1.6c-0.6-0.6-0.9,0-1.2,0.4c-2.3,2.4-5.2,3.8-8.3,4.6
		C224.8,70.4,218.4,70.1,211.8,69.8z M234,61.7c-4.1-1.6-17.1,0.5-20.2,3.3C220.8,65.1,227.5,65,234,61.7z M196.4,71.8
		c-0.8-1.4-1.3-2.6-1.5-3.9c-0.3-2.9-1.6-3.7-4.4-2.8c-1.2,0.4-1.4,1.2-0.9,2C191.1,69.6,193.2,71.2,196.4,71.8z M216.8,73.4
		c1,0.8,1.6,1.3,2.4,1.3c4.8,0,9.5-0.1,14.1-1.8c1.1-0.4,2.1-1.1,2.9-2.3C229.8,73.1,223.5,73.5,216.8,73.4z M159.2,62.5
		c1-0.2,2.2,0,2.7-1.2c0.7-1.3-0.3-2.3-0.6-3.4c-0.1-0.4-0.4-0.4-0.7-0.3c-1.5,0.4-3.1,0.9-4.6,1.3c-0.8,0.2-0.9,0.7-0.5,1.4
		C156.4,61.7,157.5,62.6,159.2,62.5z M161.1,38.6c0,1.5,0.1,1.8,0.8,1.7c3.2-0.6,3.8-1.8,2.7-4.8c-0.1-0.3-0.3-0.6-0.4-1
		c-0.2-0.7-0.6-0.7-1.1-0.2C161.9,35.5,161,36.9,161.1,38.6z M222.8,76.1c1.6,1.2,4.1,1,6-0.5C226.6,75.9,224.8,76,222.8,76.1z"/>
	<path class="st1" d="M236.4,47.3c-2.3-0.2-2.4-0.1-2.9,2.1c-0.2,1.2-0.5,2.4-1,3.5c-0.7,1.5-1.7,2.7-3.5,3c-1,0.1-1.9,0.6-2.7,1.3
		c-0.9,0.9-2.1,1.4-3.4,1.5c-0.6,0-1.2-0.1-1.2-0.8c-0.1-0.6,0.4-0.9,1-0.9c1.7-0.1,2.6-1.4,3.9-2.1c0.3-0.2,0.5-0.5,0.4-0.9
		c-0.4-2.7-0.9-5.3-3.1-7.1c-0.4-0.4-0.9-0.8-0.4-1.4c0.5-0.7,1.1-0.3,1.6,0.1c2.2,1.8,3.1,4.3,3.5,7c0.1,0.5-0.1,1.3,0.6,1.3
		c0.6,0.1,1-0.5,1.3-0.9c0.9-1.3,1.1-2.9,1.4-4.4c0.5-2.6,2.3-3.6,4.8-2.9c0.5,0.2,1.1,0.4,0.9,1.1
		C237.5,47.4,236.9,47.4,236.4,47.3z"/>
	<path class="st1" d="M169,63c0.2-1.5,1.1-2.4,2.5-2.8c0.9-0.2,1.2-0.6,0.8-1.4c0,0,0-0.1,0-0.1c-0.1-2-0.5-3.8-3.1-3.8
		c-0.3,0-0.7-0.4-1-0.6c-0.4-0.3-0.5-0.8-0.2-1.2c0.3-0.4,0.7-0.4,1.1-0.2c0.4,0.2,0.8,0.4,1.2,0.6c1.1,0.3,2,0.4,2.2-1.1
		c0-0.1,0.1-0.3,0.1-0.4c0.2-0.6,0.4-1.3,1.2-1c0.8,0.2,0.6,0.9,0.4,1.5c-0.3,1.1-0.5,2.1-0.5,3.3c0,0.3,0,0.6,0,0.9
		c0.2,1.1-0.1,2.6,1,2.9c1.2,0.3,2.3-0.8,3.1-1.8c0.3-0.4,0.4-0.8,0.6-1.2c0.2-0.6,0.5-1.2,1.2-1c0.7,0.3,0.6,1,0.4,1.6
		c-0.7,2.1-2.1,3.4-4.1,4.1c-1.1,0.4-2.3,0.5-3.5,0.8c-0.9,0.2-1.6,0.5-1.7,1.6c0,0.6-0.3,1-1,0.9C169,64.1,169,63.5,169,63z"/>
	<path class="st1" d="M174.1,39.8c0.4-2.5,1.2-4.9,3.2-6.8c1.7-1.6,4.2-1.8,6.1-0.7c0.5,0.3,1,0.6,0.7,1.3c-0.3,0.6-0.8,0.5-1.3,0.3
		c-1.5-0.7-3.1-0.9-4.3,0.4c-1.7,1.7-2.5,3.7-2.5,6.1c0,0.5,0.3,0.9,0.7,1.3c0.4,0.4,0.6,0.8,0.2,1.3c-0.4,0.5-0.9,0.3-1.3,0
		C174.5,42.2,174.2,41.2,174.1,39.8z"/>
</g>
</svg>
